<svg preserveAspectRatio="none" width="100%" height="100%" overflow="visible" style="display: block;" viewBox="0 0 14 13.3333" fill="none" xmlns="http://www.w3.org/2000/svg">
<g id="Group">
<path id="Vector" d="M11.3333 3.33333V1.33333C11.3333 0.96539 11.0346 0.666667 10.6667 0.666667H2C1.26411 0.666667 0.666667 1.26411 0.666667 2C0.666667 2.73589 1.26411 3.33333 2 3.33333H12C12.3679 3.33333 12.6667 3.63206 12.6667 4V6.66667H10.6667C9.93078 6.66667 9.33333 7.26411 9.33333 8C9.33333 8.73589 9.93078 9.33333 10.6667 9.33333H12.6667C13.0346 9.33333 13.3333 9.03461 13.3333 8.66667V7.33333C13.3333 6.96539 13.0346 6.66667 12.6667 6.66667" stroke="var(--stroke-0, #1977F2)" stroke-width="1.33333" stroke-linecap="round" stroke-linejoin="round"/>
<path id="Vector_2" d="M0.666667 2V11.3333C0.666667 12.0692 1.26411 12.6667 2 12.6667H12C12.3679 12.6667 12.6667 12.3679 12.6667 12V9.33333" stroke="var(--stroke-0, #1977F2)" stroke-width="1.33333" stroke-linecap="round" stroke-linejoin="round"/>
</g>
</svg>
