<svg preserveAspectRatio="none" width="100%" height="100%" overflow="visible" style="display: block;" viewBox="0 0 16.4964 16.4964" fill="none" xmlns="http://www.w3.org/2000/svg">
<g id="Group">
<path id="Vector" d="M8.6895 1.1895C8.40826 0.908176 8.02679 0.750085 7.629 0.75H2.25C1.42213 0.75 0.75 1.42213 0.75 2.25V7.629C0.750085 8.02679 0.908176 8.40826 1.1895 8.6895L7.7175 15.2175C8.42712 15.9226 9.57288 15.9226 10.2825 15.2175L15.2175 10.2825C15.9226 9.57288 15.9226 8.42712 15.2175 7.7175L8.6895 1.1895" stroke="var(--stroke-0, #6B7280)" stroke-width="1.5" stroke-linecap="round" stroke-linejoin="round"/>
<g id="Vector_2">
<path d="M4.5 4.875C4.5 5.08197 4.66803 5.25 4.875 5.25C5.08197 5.25 5.25 5.08197 5.25 4.875C5.25 4.66803 5.08197 4.5 4.875 4.5C4.66803 4.5 4.5 4.66803 4.5 4.875V4.875" fill="var(--fill-0, #6B7280)"/>
<path d="M4.5 4.875C4.5 5.08197 4.66803 5.25 4.875 5.25C5.08197 5.25 5.25 5.08197 5.25 4.875C5.25 4.66803 5.08197 4.5 4.875 4.5C4.66803 4.5 4.5 4.66803 4.5 4.875V4.875" stroke="var(--stroke-0, #6B7280)" stroke-width="1.5" stroke-linecap="round" stroke-linejoin="round"/>
</g>
</g>
</svg>
